<svg width="22" height="22" viewBox="0 0 22 22" fill="none" xmlns="http://www.w3.org/2000/svg">
<path fill-rule="evenodd" clip-rule="evenodd" d="M11.0428 21.5655C16.8252 21.5655 21.5128 16.8779 21.5128 11.0955C21.5128 5.31307 16.8252 0.625488 11.0428 0.625488C5.26033 0.625488 0.572754 5.31307 0.572754 11.0955C0.572754 16.8779 5.26033 21.5655 11.0428 21.5655ZM14.5592 7.77938C14.9291 8.14926 14.9291 8.74896 14.5592 9.11884L12.5817 11.0964L14.5598 13.0745C14.9297 13.4444 14.9297 14.0441 14.5598 14.414C14.1899 14.7839 13.5903 14.7839 13.2204 14.414L11.2422 12.4358L9.06477 14.6133C8.69489 14.9832 8.09519 14.9832 7.72531 14.6133C7.35543 14.2434 7.35543 13.6437 7.72531 13.2738L9.90277 11.0964L7.72591 8.91953C7.35603 8.54965 7.35603 7.94995 7.72591 7.58007C8.09579 7.21019 8.69549 7.21019 9.06537 7.58007L11.2422 9.75693L13.2198 7.77938C13.5897 7.4095 14.1894 7.4095 14.5592 7.77938Z" fill="#1D1D1F"/>
</svg>
